<svg xmlns="http://www.w3.org/2000/svg" viewBox="0 0 279.21 48"><defs><style>.cls-1{fill:#305dab;}.cls-2{fill:#fff;}.cls-3{fill:#2a2a2a;}</style></defs><g id="light_logos" data-name="light logos"><circle class="cls-1" cx="24" cy="24" r="24"/><path class="cls-2" d="M19.67,11.54l-8.88,8.88a6.13,6.13,0,0,0,0,8.66L19.67,38a6.09,6.09,0,0,0,3.42,1.72l.26,0,.12,0a4.7,4.7,0,0,0,1.06,0l.12,0,.26,0A6.09,6.09,0,0,0,28.33,38l8.88-8.88a6.13,6.13,0,0,0,0-8.66l-8.88-8.88A6.13,6.13,0,0,0,19.67,11.54ZM31.91,28.9A1.45,1.45,0,0,1,31.48,30l-1.6,1.6L25.28,27a2.05,2.05,0,0,0-2.9,0L18,31.38,16.52,30a1.45,1.45,0,0,1-.43-1.05,1.43,1.43,0,0,1,.43-1L23,21.42a1.5,1.5,0,0,1,2.1,0l6.43,6.44A1.43,1.43,0,0,1,31.91,28.9ZM26.07,13.8,35,22.68a2.95,2.95,0,0,1,0,4.14l-.4.41a4.39,4.39,0,0,0-1-1.46l-6.44-6.44a4.45,4.45,0,0,0-6.28,0l-6.44,6.43a4.53,4.53,0,0,0-1,1.47l-.4-.41a2.95,2.95,0,0,1,0-4.14l8.88-8.88a2.95,2.95,0,0,1,4.14,0Z"/><circle class="cls-1" cx="24" cy="24" r="24"/><path class="cls-2" d="M19.67,11.54l-8.88,8.88a6.13,6.13,0,0,0,0,8.66L19.67,38a6.09,6.09,0,0,0,3.42,1.72l.26,0,.12,0a4.7,4.7,0,0,0,1.06,0l.12,0,.26,0A6.09,6.09,0,0,0,28.33,38l8.88-8.88a6.13,6.13,0,0,0,0-8.66l-8.88-8.88A6.13,6.13,0,0,0,19.67,11.54ZM31.91,28.9A1.45,1.45,0,0,1,31.48,30l-1.6,1.6L25.28,27a2.05,2.05,0,0,0-2.9,0L18,31.38,16.52,30a1.45,1.45,0,0,1-.43-1.05,1.43,1.43,0,0,1,.43-1L23,21.42a1.5,1.5,0,0,1,2.1,0l6.43,6.44A1.43,1.43,0,0,1,31.91,28.9ZM26.07,13.8,35,22.68a2.95,2.95,0,0,1,0,4.14l-.4.41a4.39,4.39,0,0,0-1-1.46l-6.44-6.44a4.45,4.45,0,0,0-6.28,0l-6.44,6.43a4.53,4.53,0,0,0-1,1.47l-.4-.41a2.95,2.95,0,0,1,0-4.14l8.88-8.88a2.95,2.95,0,0,1,4.14,0Z"/><path class="cls-3" d="M272.92,13h.94v3h.54V13h1v-.54h-2.46Z"/><path class="cls-3" d="M278.38,12.49,277.54,15l-.78-2.46h-.89V16h.54v-2.8l.93,2.8h.4l.93-2.8V16h.54V12.49Z"/><path class="cls-3" d="M60,29.07V29c0-4.89,3.78-7.29,9.2-7.29a18.34,18.34,0,0,1,6,.94v-.55c0-3.22-1.93-4.93-5.5-4.93a15.25,15.25,0,0,0-6.34,1.41L61.93,14.5a19,19,0,0,1,8.4-1.84c3.32,0,5.8.9,7.35,2.53s2.4,4,2.4,7V35.59h-5V32.76a8.94,8.94,0,0,1-7.22,3.3C63.74,36.06,60,33.61,60,29.07Zm15.25-1.63V25.9a14,14,0,0,0-5-.9C66.93,25,65,26.42,65,28.77v.09c0,2.18,1.89,3.43,4.32,3.43C72.68,32.29,75.25,30.32,75.25,27.44Z"/><path class="cls-3" d="M85.37,13h5.12v3.77a8.84,8.84,0,0,1,7.56-4.24c5.21,0,10.29,4.2,10.29,11.74v.09c0,7.49-5,11.74-10.29,11.74a9,9,0,0,1-7.56-4V42.44H85.37Zm17.81,11.36v-.09c0-4.37-2.94-7.24-6.35-7.24s-6.46,2.91-6.46,7.24v.09c0,4.32,3,7.24,6.46,7.24S103.18,28.77,103.18,24.32Z"/><path class="cls-3" d="M112.63,13h5.12v3.77a8.84,8.84,0,0,1,7.56-4.24c5.21,0,10.29,4.2,10.29,11.74v.09c0,7.49-5,11.74-10.29,11.74a9,9,0,0,1-7.56-4V42.44h-5.12Zm17.81,11.36v-.09c0-4.37-3-7.24-6.35-7.24s-6.47,2.91-6.47,7.24v.09c0,4.32,3,7.24,6.47,7.24S130.44,28.77,130.44,24.32Z"/><path class="cls-3" d="M151.1,29.07V29c0-4.89,3.78-7.29,9.2-7.29a18.34,18.34,0,0,1,6,.94v-.55c0-3.22-1.93-4.93-5.5-4.93a15.25,15.25,0,0,0-6.34,1.41L153,14.5a19,19,0,0,1,8.4-1.84c3.32,0,5.8.9,7.35,2.53s2.4,4,2.4,7V35.59h-5V32.76a8.94,8.94,0,0,1-7.22,3.3C154.84,36.06,151.1,33.61,151.1,29.07Zm15.25-1.63V25.9a14,14,0,0,0-5-.9c-3.28,0-5.21,1.42-5.21,3.77v.09c0,2.18,1.89,3.43,4.32,3.43C163.78,32.29,166.35,30.32,166.35,27.44Z"/><path class="cls-3" d="M173.82,13h5.25l4.45,15.51,4.92-15.6h4.37l4.91,15.6L202.26,13h5.12l-7.27,22.8h-4.57l-5-15.47-5,15.47h-4.53Z"/><path class="cls-3" d="M208.93,29.07V29c0-4.89,3.78-7.29,9.2-7.29a18.34,18.34,0,0,1,6,.94v-.55c0-3.22-1.93-4.93-5.5-4.93a15.25,15.25,0,0,0-6.34,1.41l-1.39-4.07a19,19,0,0,1,8.4-1.84c3.32,0,5.8.9,7.35,2.53s2.4,4,2.4,7V35.59h-5V32.76a8.94,8.94,0,0,1-7.22,3.3C212.67,36.06,208.93,33.61,208.93,29.07Zm15.25-1.63V25.9a14,14,0,0,0-5-.9c-3.28,0-5.21,1.42-5.21,3.77v.09c0,2.18,1.89,3.43,4.32,3.43C221.61,32.29,224.18,30.32,224.18,27.44Z"/><path class="cls-3" d="M234.46,13h5.12v5.1c1.39-3.39,3.95-5.7,7.86-5.53V18h-.3c-4.45,0-7.56,2.95-7.56,9v8.62h-5.12Z"/><path class="cls-3" d="M249.5,24.36v-.09c0-6.47,4.5-11.78,10.84-11.78,7.06,0,10.62,5.65,10.62,12.17,0,.47,0,.94-.08,1.46h-16.3A6.24,6.24,0,0,0,261,31.86a8,8,0,0,0,6-2.7l3,2.7a11.14,11.14,0,0,1-9.08,4.24C254.46,36.1,249.5,31.34,249.5,24.36Zm16.43-1.67c-.34-3.34-2.27-6-5.63-6-3.11,0-5.3,2.44-5.76,6Z"/></g></svg>