<svg xmlns="http://www.w3.org/2000/svg" viewBox="0 0 204.78 48"><defs><style>.cls-1{fill:#3f9cd6;}.cls-2{fill:#fff;}.cls-3{fill:#2a2a2a;}</style></defs><g id="light_logos" data-name="light logos"><circle class="cls-1" cx="24" cy="24" r="24"/><polygon class="cls-2" points="30.56 21.8 24.49 18.25 18.41 21.8 18.41 28.86 24.49 32.36 30.56 28.86 30.56 21.8"/><polygon class="cls-2" points="13.31 24 10.42 21.45 10.42 33.5 19.23 38.51 19.23 35.11 13.31 31.62 13.31 24"/><polygon class="cls-2" points="35.68 24 35.68 31.75 29.89 35.11 29.89 38.81 38.56 33.46 38.56 21.29 35.68 24"/><polygon class="cls-2" points="24.47 12.4 32.15 16.84 34.25 14.67 24.47 9 14.64 14.72 16.74 16.9 24.47 12.4"/><path class="cls-3" d="M198.47,16.55h.94v3H200v-3h1V16h-2.46Z"/><path class="cls-3" d="M203.94,16l-.84,2.46L202.31,16h-.88v3.5H202V16.7l.93,2.81h.4l.94-2.81v2.81h.54V16Z"/><path class="cls-3" d="M60.16,27.15v-.09c0-7.35,4.91-11.51,10.09-11.51a8.86,8.86,0,0,1,7.42,3.91V7.52h5V38.2h-5V34.5a8.68,8.68,0,0,1-7.42,4.16C65.15,38.66,60.16,34.5,60.16,27.15Zm17.59,0v-.09c0-4.28-3-7.1-6.3-7.1s-6.26,2.73-6.26,7.1v.09c0,4.28,2.88,7.1,6.26,7.1S77.75,31.39,77.75,27.15Z"/><path class="cls-3" d="M86.83,27.19V27.1c0-6.34,4.41-11.55,10.63-11.55,6.92,0,10.42,5.54,10.42,11.93,0,.46,0,.93-.09,1.43h-16a6.12,6.12,0,0,0,6.26,5.63A7.81,7.81,0,0,0,104,31.89l2.93,2.65A10.92,10.92,0,0,1,98,38.7C91.69,38.7,86.83,34,86.83,27.19Zm16.1-1.64c-.33-3.28-2.22-5.84-5.51-5.84-3,0-5.19,2.39-5.65,5.84Z"/><path class="cls-3" d="M112,16h5v3.7a8.66,8.66,0,0,1,7.41-4.16c5.11,0,10.09,4.12,10.09,11.51v.09c0,7.35-4.94,11.51-10.09,11.51A8.83,8.83,0,0,1,117,34.75V44.92h-5Zm17.47,11.14v-.09c0-4.28-2.89-7.1-6.22-7.1s-6.35,2.86-6.35,7.1v.09c0,4.24,3,7.1,6.35,7.1S129.46,31.52,129.46,27.15Z"/><path class="cls-3" d="M138.91,7.52h5V38.2h-5Z"/><path class="cls-3" d="M148.15,27.23v-.08a11.59,11.59,0,0,1,23.18-.09v.09A11.48,11.48,0,0,1,159.68,38.7,11.36,11.36,0,0,1,148.15,27.23Zm18.2,0v-.08c0-3.91-2.76-7.15-6.67-7.15s-6.55,3.2-6.55,7.06v.09c0,3.86,2.76,7.1,6.63,7.1C163.79,34.25,166.35,31.05,166.35,27.23Z"/><path class="cls-3" d="M189.25,16h5.19l-8.65,22.77c-1.73,4.58-3.66,6.27-7.16,6.27a9.75,9.75,0,0,1-5.15-1.39l1.69-3.74a6.06,6.06,0,0,0,2.92.84c1.4,0,2.27-.63,3.09-2.52L172.12,16h5.36l6.09,16.47Z"/></g></svg>