<svg xmlns="http://www.w3.org/2000/svg" viewBox="0 0 201 48"><defs><style>.cls-1{fill:#3f9cd6;}.cls-2{fill:#fff;}.cls-3{fill:#2a2a2a;}</style></defs><g id="light_logos" data-name="light logos"><circle class="cls-1" cx="24" cy="24" r="24"/><path class="cls-2" d="M25.3,37.06V32.51H22.7v4.55l-2.46-1.37-2.67,1.53L24,40.91l6.58-3.79L28,35.63Z"/><polygon class="cls-2" points="11.98 18.56 15.74 20.74 17.04 18.43 13.12 16.3 15.28 15.05 15.28 12.11 9.34 15.55 9.35 22.66 11.98 21.18 11.98 18.56"/><polygon class="cls-2" points="32.08 20.74 35.99 18.52 35.97 21.17 38.66 22.68 38.66 15.53 32.44 11.97 32.33 14.87 34.85 16.36 30.87 18.24 32.08 20.74"/><path class="cls-2" d="M38.64,25.63,36,24.12v.17h0v4.83L25.25,23V10.83l4.65,2.64V10.55L24,7.09,17.88,10.6v3l4.64-2.69V23L12,29.45V24.1L9.35,25.61v6.85l5.54,3.1L17.59,34,13.2,31.58,24,25.31l10.67,6.2L30.42,34l2.78,1.63,5.44-3.13Z"/><path class="cls-3" d="M194.72,17.36h.93v2.95h.54V17.36h1v-.54h-2.45Z"/><path class="cls-3" d="M200.17,16.82l-.84,2.46-.78-2.46h-.89v3.49h.54v-2.8l.94,2.8h.39l.93-2.8v2.8H201V16.82Z"/><path class="cls-3" d="M194.72,17.36h.93v2.95h.54V17.36h1v-.54h-2.45Z"/><path class="cls-3" d="M200.17,16.82l-.84,2.46-.78-2.46h-.89v3.49h.54v-2.8l.94,2.8h.39l.93-2.8v2.8H201V16.82Z"/><path class="cls-3" d="M60.41,17.26h4.81v4.79c1.3-3.18,3.71-5.35,7.38-5.19V22h-.28c-4.18,0-7.1,2.78-7.1,8.41v8.09H60.41Z"/><path class="cls-3" d="M74.54,28v-.08c0-6.08,4.22-11.07,10.18-11.07,6.62,0,10,5.31,10,11.43,0,.44,0,.88-.08,1.37H79.31a5.85,5.85,0,0,0,6,5.39A7.52,7.52,0,0,0,91,32.47L93.75,35a10.47,10.47,0,0,1-8.52,4C79.19,39,74.54,34.53,74.54,28ZM90,26.4c-.32-3.14-2.13-5.6-5.28-5.6-2.92,0-5,2.3-5.41,5.6Z"/><path class="cls-3" d="M99,9.13h4.82V38.51H99Z"/><path class="cls-3" d="M108.12,28v-.08c0-6.08,4.22-11.07,10.18-11.07,6.63,0,10,5.31,10,11.43,0,.44,0,.88-.08,1.37H112.9a5.85,5.85,0,0,0,6,5.39,7.48,7.48,0,0,0,5.64-2.54l2.8,2.54a10.45,10.45,0,0,1-8.52,4C112.78,39,108.12,34.53,108.12,28Zm15.43-1.57c-.32-3.14-2.13-5.6-5.29-5.6-2.92,0-5,2.3-5.4,5.6Z"/><path class="cls-3" d="M130.88,32.39v-.08c0-4.59,3.55-6.84,8.64-6.84a16.89,16.89,0,0,1,5.6.89v-.53c0-3-1.81-4.63-5.17-4.63A14.32,14.32,0,0,0,134,22.53l-1.3-3.82A17.69,17.69,0,0,1,140.59,17c3.11,0,5.44.84,6.9,2.37s2.25,3.79,2.25,6.56v12.6h-4.66V35.85A8.4,8.4,0,0,1,138.3,39C134.39,39,130.88,36.66,130.88,32.39Zm14.32-1.53V29.41a13.05,13.05,0,0,0-4.73-.84c-3.08,0-4.89,1.33-4.89,3.54v.08c0,2.05,1.77,3.22,4.06,3.22C142.79,35.41,145.2,33.56,145.2,30.86Z"/><path class="cls-3" d="M153.12,35.73l2.13-3.3a11.65,11.65,0,0,0,6.82,2.62c2.05,0,3.24-.89,3.24-2.3v-.08c0-1.65-2.21-2.21-4.66-3-3.07-.89-6.5-2.18-6.5-6.2v-.08c0-4.07,3.27-6.52,7.41-6.52a14.23,14.23,0,0,1,7.65,2.41l-1.89,3.46a12,12,0,0,0-5.88-2c-1.85,0-2.92.93-2.92,2.09v.09c0,1.57,2.25,2.21,4.7,3,3,1,6.47,2.38,6.47,6.2v.08c0,4.47-3.4,6.68-7.73,6.68A14.16,14.16,0,0,1,153.12,35.73Z"/><path class="cls-3" d="M172.54,28v-.08c0-6.08,4.22-11.07,10.17-11.07,6.63,0,10,5.31,10,11.43,0,.44,0,.88-.08,1.37h-15.3a5.85,5.85,0,0,0,6,5.39A7.52,7.52,0,0,0,189,32.47l2.8,2.54a10.48,10.48,0,0,1-8.52,4C177.19,39,172.54,34.53,172.54,28ZM188,26.4c-.32-3.14-2.13-5.6-5.29-5.6-2.91,0-5,2.3-5.4,5.6Z"/></g></svg>